<?xml version="1.0" encoding="UTF-8"?>
<svg width="70px" height="80px" viewBox="0 0 70 80" version="1.1" xmlns="http://www.w3.org/2000/svg" xmlns:xlink="http://www.w3.org/1999/xlink">
    <!-- Generator: Sketch 50.2 (55047) - http://www.bohemiancoding.com/sketch -->
    <title>rp-Group</title>
    <desc>Created with Sketch.</desc>
    <defs></defs>
    <g id="Page-1" stroke="none" stroke-width="1" fill="none" fill-rule="evenodd">
        <g id="1.-Home" transform="translate(-650.000000, -1381.000000)">
            <g id="featurettes" transform="translate(140.000000, 1382.000000)">
                <g id="Group-40" transform="translate(508.000000, 0.000000)">
                    <g id="Group" transform="translate(3.000000, 0.000000)">
                        <path d="M37.5837,72.5071 C18.9867,74.5531 2.2527,61.1361 0.2057,42.5391 C-1.3153,28.7061 5.7177,15.9031 17.0737,9.4091" id="Stroke-1" stroke="#006FE8" stroke-width="2"></path>
                        <polygon id="Fill-3" fill="#006FE8" points="17.8396 13.9202 22.6926 6.8502 14.1436 6.1812"></polygon>
                        <path d="M30.1745,5.1609 C48.7715,3.1149 65.5065,16.5319 67.5525,35.1289 C69.0735,48.9619 62.0405,61.7639 50.6845,68.2579" id="Stroke-5" stroke="#006FE8" stroke-width="2"></path>
                        <polygon id="Fill-7" fill="#006FE8" points="49.9187 63.7473 45.0657 70.8173 53.6147 71.4863"></polygon>
                        <path d="M47.6257,38.8337 C47.6257,60.2807 41.4717,77.6677 33.8797,77.6677 C26.2867,77.6677 20.1327,60.2807 20.1327,38.8337 C20.1327,17.3867 26.2867,0.0007 33.8797,0.0007 C41.4717,0.0007 47.6257,17.3867 47.6257,38.8337 Z" id="Stroke-9" stroke="#58585B" stroke-width="2"></path>
                        <path d="M26.239,50.2615 C8.41,38.3405 -2.623,23.5605 1.596,17.2495 C5.816,10.9385 23.69,15.4855 41.52,27.4065 C59.349,39.3265 70.382,54.1075 66.162,60.4185 C61.942,66.7295 44.068,62.1815 26.239,50.2615 Z" id="Stroke-11" stroke="#58585B" stroke-width="2"></path>
                        <path d="M41.5202,50.2615 C59.3492,38.3405 70.3812,23.5605 66.1622,17.2495 C61.9422,10.9385 44.0682,15.4855 26.2392,27.4065 C8.4102,39.3265 -2.6238,54.1075 1.5962,60.4185 C5.8162,66.7295 23.6902,62.1815 41.5202,50.2615 Z" id="Stroke-13" stroke="#58585B" stroke-width="2"></path>
                        <path d="M36.0193,38.8337 C36.0193,40.0157 35.0613,40.9737 33.8793,40.9737 C32.6983,40.9737 31.7403,40.0157 31.7403,38.8337 C31.7403,37.6517 32.6983,36.6937 33.8793,36.6937 C35.0613,36.6937 36.0193,37.6517 36.0193,38.8337 Z" id="Stroke-15" stroke="#006FE8" stroke-width="2"></path>
                    </g>
                </g>
            </g>
        </g>
    </g>
</svg>